<svg width="32" height="32" viewBox="0 0 32 32" fill="none" xmlns="http://www.w3.org/2000/svg">
<path d="M1.33398 29.3333H6.66732V14.6667H1.33398V29.3333ZM18.6673 2L9.33398 8.66667V12H12.0007L25.334 17.3333V20H28.0007V8.66667L18.6673 2ZM18.0007 13.3333H16.6673V12H18.0007V13.3333ZM18.0007 10.6667H16.6673V9.33333H18.0007V10.6667ZM20.6673 13.3333H19.334V12H20.6673V13.3333ZM20.6673 10.6667H19.334V9.33333H20.6673V10.6667ZM29.334 25.3333L18.6673 29.3333L9.33398 26.6933V14.6667H11.9607L22.6673 18.6667V21.3333H17.334L14.9873 20.4267L14.5473 21.68L17.334 22.6667H29.334V25.3333Z" fill="#EC6C10"/>
</svg>
