<svg width="69" height="69" viewBox="0 0 69 69" fill="none" xmlns="http://www.w3.org/2000/svg">
<rect width="69" height="69" rx="7" fill="#FFF5ED"/>
<path d="M15.334 24.916H53.6673V57.4993H15.334V24.916Z" fill="#9B9B9A"/>
<path d="M13.416 21.084H55.5827V24.9173H13.416V21.084Z" fill="#D0CFCE"/>
<path d="M18.6875 24.916H20.654V57.4993H18.6875M23.8941 24.916H25.8472V57.4993H23.8941M45.1059 57.4993H43.1423V24.916H45.1059M50.3125 57.4993H48.3786V24.916H50.3125" fill="white"/>
<path d="M34.5007 11.5L18.209 21.0833H50.7923L34.5007 11.5Z" fill="#D0CFCE"/>
<path d="M30.1875 47.916H38.8125V57.4993H30.1875V47.916Z" fill="#92D3F5"/>
<path d="M34.5007 38.3333C37.147 38.3333 39.2923 36.188 39.2923 33.5417C39.2923 30.8953 37.147 28.75 34.5007 28.75C31.8543 28.75 29.709 30.8953 29.709 33.5417C29.709 36.188 31.8543 38.3333 34.5007 38.3333Z" fill="#FCEA2B"/>
<path d="M35.4085 32.8347C35.3145 32.4705 34.9101 32.1964 34.4243 32.1964C33.8694 32.1964 33.4199 32.5539 33.4199 32.9957C33.4199 33.4375 33.8703 33.7959 34.4243 33.7959L34.4041 33.7988C34.959 33.7988 35.4085 34.1572 35.4085 34.599C35.4085 35.0408 34.959 35.3992 34.4041 35.3992C33.9183 35.3992 33.5129 35.1241 33.4199 34.76M34.4147 32.1964V31.4336M34.4147 36.1611V35.3992" stroke="#F4AA41" stroke-width="0.25" stroke-miterlimit="10" stroke-linecap="round" stroke-linejoin="round"/>
<path d="M15.3327 24.9173H53.666V57.5007H15.3327V24.9173ZM13.416 21.084H55.5827V24.9173H13.416V21.084Z" stroke="black" stroke-width="0.5" stroke-miterlimit="10" stroke-linecap="round" stroke-linejoin="round"/>
<path d="M18.6862 24.9167H21.5612V57.5H18.6862M23.8928 24.9167H26.7678V57.5H23.8928M45.1046 57.5H42.2296V24.9167H45.1046M50.3112 57.5H47.4362V24.9167H50.3112M34.4987 57.5V47.9167M34.4987 11.5L18.207 20.8428H50.7904L34.4987 11.5ZM30.1862 47.9167H38.8112V57.5H30.1862V47.9167Z" stroke="black" stroke-width="0.5" stroke-miterlimit="10" stroke-linecap="round" stroke-linejoin="round"/>
<path d="M34.4987 38.3333C37.1451 38.3333 39.2904 36.188 39.2904 33.5417C39.2904 30.8953 37.1451 28.75 34.4987 28.75C31.8523 28.75 29.707 30.8953 29.707 33.5417C29.707 36.188 31.8523 38.3333 34.4987 38.3333Z" stroke="black" stroke-width="0.5" stroke-miterlimit="10"/>
<path d="M35.4085 32.8347C35.3145 32.4705 34.9101 32.1964 34.4243 32.1964C33.8694 32.1964 33.4199 32.5539 33.4199 32.9957C33.4199 33.4375 33.8703 33.7959 34.4243 33.7959L34.4041 33.7988C34.959 33.7988 35.4085 34.1572 35.4085 34.599C35.4085 35.0408 34.959 35.3992 34.4041 35.3992C33.9183 35.3992 33.5129 35.1241 33.4199 34.76M34.4147 32.1964V31.4336M34.4147 36.1611V35.3992" stroke="black" stroke-width="0.25" stroke-miterlimit="10" stroke-linecap="round" stroke-linejoin="round"/>
</svg>
