<svg width="60" height="60" viewBox="0 0 60 60" fill="none" xmlns="http://www.w3.org/2000/svg">
<rect x="1" y="1" width="58" height="58" rx="29" stroke="#833700" stroke-width="2"/>
<path d="M42.2876 15.238C37.9166 19.0955 34.2185 22.7676 30.8329 27.5586C29.3398 29.6718 27.6793 32.159 26.5939 34.5072C25.9743 35.7524 24.8573 37.698 24.4766 39.5687C22.3939 37.5929 20.1568 35.3503 17.8679 33.5938C16.2365 32.3423 11.5375 34.8939 13.4503 36.3615C16.8784 38.9908 19.7294 42.2656 23.0638 45.0122C24.4584 46.1596 27.5493 43.6677 28.2756 42.6222C30.6598 39.1778 30.9857 34.9673 32.7233 31.2102C35.3764 25.464 40.0816 20.7438 44.7272 16.6448C47.8051 13.7175 44.6262 13.1776 42.2923 15.238" fill="#833700"/>
</svg>
