<svg width="42" height="42" viewBox="0 0 42 42" fill="none" xmlns="http://www.w3.org/2000/svg">
<path d="M38.1746 33.4516H3.82977C2.45164 33.4516 1.32617 32.3261 1.32617 30.948V11.0505C1.32617 9.67234 2.45164 8.54688 3.82977 8.54688H38.1746C39.5527 8.54688 40.6782 9.67234 40.6782 11.0505V30.948C40.6782 32.3261 39.5527 33.4516 38.1746 33.4516Z" fill="#FFC107"/>
<path d="M1.32227 12.7578H40.6809V18.0308H1.32227V12.7578Z" fill="#424242"/>
<path d="M37.471 24.3268H4.55023C4.22867 24.3268 3.96289 24.0643 3.96289 23.7395V20.9799C3.96289 20.6584 4.22539 20.3926 4.55023 20.3926H37.471C37.7926 20.3926 38.0584 20.6551 38.0584 20.9799V23.7395C38.0551 24.061 37.7926 24.3268 37.471 24.3268Z" fill="white"/>
<path d="M7.86914 23.129C8.05289 22.7746 8.10211 22.3611 8.26617 21.9969C8.43023 21.6327 8.78789 21.2947 9.18164 21.3571C9.54586 21.4161 9.77227 21.7804 9.9068 22.1216C10.0938 22.5974 10.1955 23.106 10.2087 23.6179C10.212 23.7229 10.2054 23.8377 10.1365 23.9197C10.0151 24.0575 9.7657 23.9886 9.67055 23.8311C9.57539 23.6736 9.59836 23.4735 9.64102 23.293C9.84445 22.4563 10.5007 21.7443 11.3177 21.4752C11.403 21.4457 11.4916 21.4227 11.5802 21.4391C11.7705 21.4752 11.8755 21.6721 11.9609 21.8427C12.161 22.2332 12.4038 22.604 12.6827 22.9419C12.7943 23.0797 12.9223 23.2143 13.0929 23.2668C13.654 23.4308 13.9788 22.604 14.5202 22.3841C15.1699 22.1216 15.8032 22.8074 16.4923 22.9354C17.4996 23.1224 18.0345 22.3382 18.9171 22.138C19.0352 22.1118 19.1632 22.0954 19.2813 22.1282C19.4979 22.1905 19.6324 22.3972 19.7604 22.5843C20.059 23.024 20.4855 23.4571 21.0171 23.4604C21.3551 23.4636 21.6668 23.2897 21.9752 23.1421C23.0679 22.6204 24.3574 22.4038 25.4993 22.8041" stroke="#424242" stroke-width="0.25" stroke-miterlimit="10" stroke-linecap="round" stroke-linejoin="round"/>
</svg>
