<svg width="32" height="32" viewBox="0 0 32 32" fill="none" xmlns="http://www.w3.org/2000/svg">
<g clip-path="url(#clip0_1205_749)">
<path d="M15.9996 1.77832C13.1867 1.77832 10.437 2.61244 8.09813 4.1752C5.7593 5.73795 3.9364 7.95916 2.85995 10.5579C1.78351 13.1567 1.50186 16.0163 2.05063 18.7752C2.59939 21.534 3.95393 24.0682 5.94294 26.0572C7.93196 28.0462 10.4661 29.4007 13.225 29.9495C15.9838 30.4983 18.8434 30.2166 21.4422 29.1402C24.041 28.0637 26.2622 26.2408 27.8249 23.902C29.3877 21.5632 30.2218 18.8134 30.2218 16.0005C30.2218 12.2286 28.7234 8.6111 26.0562 5.94391C23.389 3.27673 19.7715 1.77832 15.9996 1.77832ZM22.7996 20.9694C21.9107 23.6361 19.5907 24.3828 17.5551 24.525V26.3028C17.5551 26.5975 17.4381 26.8801 17.2297 27.0884C17.0213 27.2968 16.7387 27.4139 16.444 27.4139C16.1493 27.4139 15.8667 27.2968 15.6583 27.0884C15.45 26.8801 15.3329 26.5975 15.3329 26.3028V24.525C13.2917 24.3336 11.3556 23.5313 9.77735 22.2228C9.67054 22.123 9.58444 22.0031 9.52395 21.87C9.46347 21.7369 9.42979 21.5932 9.42484 21.4471C9.41988 21.301 9.44376 21.1554 9.49509 21.0185C9.54642 20.8817 9.62421 20.7562 9.72402 20.6494C9.82382 20.5426 9.94369 20.4565 10.0768 20.396C10.2098 20.3355 10.3535 20.3019 10.4996 20.2969C10.6457 20.292 10.7914 20.3158 10.9283 20.3672C11.0651 20.4185 11.1905 20.4963 11.2974 20.5961C12.4604 21.5333 13.8603 22.1302 15.3418 22.3205V16.7383C14.1611 16.5572 13.0315 16.1302 12.0262 15.485C11.1809 14.9548 10.5481 14.1451 10.2379 13.1967C9.92772 12.2483 9.95976 11.2211 10.3285 10.2939C10.8529 8.95165 12.4796 7.42276 15.3418 7.17388V5.5561C15.3418 5.26141 15.4589 4.9788 15.6672 4.77042C15.8756 4.56205 16.1582 4.44499 16.4529 4.44499C16.7476 4.44499 17.0302 4.56205 17.2386 4.77042C17.447 4.9788 17.564 5.26141 17.564 5.5561V7.20943C19.1529 7.38546 20.6613 8.00111 21.9196 8.98721C22.094 9.1924 22.1879 9.45394 22.1839 9.72321C22.18 9.99247 22.0783 10.2511 21.8979 10.4511C21.7175 10.651 21.4707 10.7786 21.2033 10.8102C20.9358 10.8418 20.666 10.7752 20.444 10.6228C19.5953 10.002 18.6057 9.6019 17.564 9.45832V14.9072C18.0974 15.0228 18.6662 15.1472 19.2618 15.3339C19.9507 15.5056 20.5971 15.8167 21.1612 16.2478C21.7253 16.6789 22.1952 17.2209 22.5418 17.8405C23.0368 18.8087 23.1295 19.9333 22.7996 20.9694Z" fill="#EC6C10"/>
<path d="M18.5966 17.4571C18.2411 17.3504 17.8944 17.2615 17.5566 17.1904V22.3104C19.3344 22.1327 20.2855 21.5104 20.6944 20.266C20.8307 19.798 20.783 19.2956 20.5611 18.8615C20.3438 18.5083 20.058 18.2021 19.7207 17.9609C19.3833 17.7198 19.0012 17.5484 18.5966 17.4571Z" fill="#EC6C10"/>
<path d="M12.3927 11.0935C12.2072 11.5543 12.195 12.0667 12.3585 12.5358C12.5219 13.0049 12.8499 13.3988 13.2815 13.6446C13.9097 14.0478 14.61 14.3255 15.3438 14.4624V9.37793C13.4771 9.60015 12.6149 10.5246 12.3927 11.0935Z" fill="#EC6C10"/>
</g>
<defs>
<clipPath id="clip0_1205_749">
<rect width="32" height="32" fill="white"/>
</clipPath>
</defs>
</svg>
