<svg width="58" height="51" viewBox="0 0 58 51" fill="none" xmlns="http://www.w3.org/2000/svg">
<path d="M52.4434 5.2982C51.0814 3.93555 49.4643 2.85459 47.6844 2.11709C45.9045 1.37959 43.9967 1 42.0701 1C40.1435 1 38.2357 1.37959 36.4558 2.11709C34.6759 2.85459 33.0588 3.93555 31.6968 5.2982L28.8701 8.12487L26.0434 5.2982C23.2923 2.54702 19.5609 1.00143 15.6701 1.00143C11.7794 1.00143 8.04795 2.54702 5.29678 5.2982C2.5456 8.04938 1 11.7808 1 15.6715C1 19.5623 2.5456 23.2937 5.29678 26.0449L8.12344 28.8715L28.8701 49.6182L49.6168 28.8715L52.4434 26.0449C53.8061 24.6829 54.887 23.0657 55.6245 21.2858C56.362 19.5059 56.7416 17.5982 56.7416 15.6715C56.7416 13.7449 56.362 11.8371 55.6245 10.0573C54.887 8.27736 53.8061 6.66022 52.4434 5.2982Z" fill="white" stroke="#B0B0B0" stroke-width="2" stroke-linecap="round" stroke-linejoin="round"/>
</svg>
