<svg width="64" height="64" viewBox="0 0 64 64" fill="none" xmlns="http://www.w3.org/2000/svg">
<path d="M16 53.334V10.6673C16 7.73398 18.4 5.33398 21.3333 5.33398H42.6667C45.6 5.33398 48 7.73398 48 10.6673V53.334C48 56.2673 45.6 58.6673 42.6667 58.6673H21.3333C18.4 58.6673 16 56.2673 16 53.334Z" fill="#37474F"/>
<path d="M42.6667 9.33398H21.3333C20.5333 9.33398 20 9.86732 20 10.6673V49.334C20 50.134 20.5333 50.6673 21.3333 50.6673H42.6667C43.4667 50.6673 44 50.134 44 49.334V10.6673C44 9.86732 43.4667 9.33398 42.6667 9.33398Z" fill="#BBDEFB"/>
<path d="M28 53.334H36V56.0007H28V53.334Z" fill="#78909C"/>
</svg>
