<svg width="32" height="32" viewBox="0 0 32 32" fill="none" xmlns="http://www.w3.org/2000/svg">
<g clip-path="url(#clip0_1205_741)">
<mask id="mask0_1205_741" style="mask-type:luminance" maskUnits="userSpaceOnUse" x="0" y="0" width="32" height="32">
<path d="M0 0H32V32H0V0Z" fill="white"/>
<path fill-rule="evenodd" clip-rule="evenodd" d="M4.92309 15.9998H6.63263V24.6152C6.63263 24.7784 6.69747 24.9349 6.81287 25.0504C6.92828 25.1658 7.08481 25.2306 7.24802 25.2306H23.52C23.6832 25.2306 23.8398 25.1658 23.9552 25.0504C24.0706 24.9349 24.1354 24.7784 24.1354 24.6152V15.9998H25.8462C25.9711 15.9996 26.093 15.9614 26.1957 15.8903C26.2984 15.8192 26.377 15.7185 26.4211 15.6016C26.4652 15.4847 26.4726 15.3572 26.4425 15.2359C26.4123 15.1147 26.346 15.0055 26.2523 14.9229L15.7908 5.69213C15.6785 5.59347 15.5341 5.53906 15.3846 5.53906C15.2352 5.53906 15.0908 5.59347 14.9785 5.69213L4.51694 14.9229C4.42325 15.0055 4.35692 15.1147 4.32678 15.2359C4.29663 15.3572 4.3041 15.4847 4.34818 15.6016C4.39227 15.7185 4.47088 15.8192 4.57357 15.8903C4.67626 15.9614 4.79817 15.9996 4.92309 15.9998ZM7.24802 14.7691H6.55017L15.3846 6.97459L24.2191 14.7691H23.5212C23.358 14.7691 23.2015 14.8339 23.0861 14.9493C22.9707 15.0647 22.9059 15.2212 22.9059 15.3844V23.9998H7.86463V15.3844C7.86463 15.2212 7.7998 15.0647 7.68439 14.9493C7.56898 14.8339 7.41123 14.7691 7.24802 14.7691Z" fill="black"/>
<path fill-rule="evenodd" clip-rule="evenodd" d="M16.8721 17.8457H13.7952C13.4688 17.8457 13.1558 17.9754 12.9249 18.2062C12.6941 18.437 12.5645 18.7501 12.5645 19.0765V23.9995C12.5645 24.326 12.6941 24.639 12.9249 24.8698C13.1558 25.1006 13.4688 25.2303 13.7952 25.2303H16.8721C17.1986 25.2303 17.5116 25.1006 17.7424 24.8698C17.9732 24.639 18.1029 24.326 18.1029 23.9995V19.0765C18.1029 18.7501 17.9732 18.437 17.7424 18.2062C17.5116 17.9754 17.1986 17.8457 16.8721 17.8457ZM13.7952 23.9995V19.0765H16.8721V23.9995H13.7952Z" fill="black"/>
</mask>
<g mask="url(#mask0_1205_741)">
<path d="M16 32C24.8366 32 32 24.8366 32 16C32 7.16344 24.8366 0 16 0C7.16344 0 0 7.16344 0 16C0 24.8366 7.16344 32 16 32Z" fill="#EC6C10"/>
</g>
</g>
<defs>
<clipPath id="clip0_1205_741">
<rect width="32" height="32" fill="white"/>
</clipPath>
</defs>
</svg>
