<svg width="69" height="69" viewBox="0 0 69 69" fill="none" xmlns="http://www.w3.org/2000/svg">
<path d="M20.3197 34.5L14.4834 40.3362L8.63281 34.5L14.4691 28.6638L20.3197 34.5ZM34.5078 20.3119L44.5186 30.3255L50.3548 24.4892L34.5078 8.625L18.6436 24.4892L24.4798 30.3255L34.5078 20.3119ZM54.5293 28.6638L48.6931 34.5L54.5293 40.3362L60.3656 34.5L54.5293 28.6638ZM34.5078 48.6881L24.4942 38.6745L18.6579 44.5107L34.5078 60.375L50.3548 44.5107L44.5186 38.6745L34.5078 48.6881ZM34.5078 40.3362L40.3441 34.5L34.5078 28.6638L28.6543 34.5L34.5078 40.3362Z" fill="#F0B90B"/>
</svg>
