<svg width="40" height="40" viewBox="0 0 40 40" fill="none" xmlns="http://www.w3.org/2000/svg">
<g clip-path="url(#clip0_1205_404)">
<path d="M26.6673 26.6667L20.0007 20L13.334 26.6667" stroke="#515151" stroke-width="3.33333" stroke-linecap="round" stroke-linejoin="round"/>
<path d="M20 20V35" stroke="#515151" stroke-width="3.33333" stroke-linecap="round" stroke-linejoin="round"/>
<path d="M33.9818 30.6488C35.6074 29.7626 36.8915 28.3603 37.6316 26.6632C38.3717 24.9661 38.5255 23.0709 38.0688 21.2767C37.6121 19.4824 36.5709 17.8914 35.1096 16.7546C33.6482 15.6178 31.8499 15.0001 29.9985 14.9988H27.8985C27.394 13.0476 26.4537 11.2361 25.1484 9.70049C23.843 8.16492 22.2065 6.94525 20.362 6.13318C18.5174 5.32111 16.5127 4.93777 14.4987 5.01197C12.4846 5.08618 10.5136 5.616 8.73376 6.56161C6.95395 7.50722 5.41165 8.84401 4.22284 10.4715C3.03402 12.0989 2.22962 13.9747 1.8701 15.9578C1.51059 17.9409 1.60531 19.9797 2.14716 21.9209C2.689 23.8622 3.66387 25.6553 4.99847 27.1655" stroke="#515151" stroke-width="3.33333" stroke-linecap="round" stroke-linejoin="round"/>
<path d="M26.6673 26.6667L20.0007 20L13.334 26.6667" stroke="#515151" stroke-width="3.33333" stroke-linecap="round" stroke-linejoin="round"/>
</g>
<defs>
<clipPath id="clip0_1205_404">
<rect width="40" height="40" fill="white"/>
</clipPath>
</defs>
</svg>
