<svg width="32" height="32" viewBox="0 0 32 32" fill="none" xmlns="http://www.w3.org/2000/svg">
<path d="M1.33398 4V28H30.6673V4H1.33398ZM6.66732 12H12.6673V14.6667H6.66732V12ZM6.66732 17.3333H12.6673V20H6.66732V17.3333ZM24.0007 13.3333C24.0007 13.9366 23.837 14.5285 23.527 15.046C23.2171 15.5636 22.7725 15.9873 22.2407 16.272C23.1464 16.5963 23.9297 17.1927 24.4834 17.9794C25.0372 18.766 25.3342 19.7046 25.334 20.6667V22H16.0007V20.6667C16.0007 18.6413 17.29 16.9187 19.094 16.272C18.5742 15.9937 18.1374 15.5825 17.8284 15.0803C17.5194 14.5781 17.3491 14.0029 17.3349 13.4134C17.3208 12.824 17.4632 12.2413 17.7478 11.7248C18.0323 11.2084 18.4488 10.7766 18.9546 10.4737C19.4605 10.1707 20.0377 10.0073 20.6273 10.0002C21.2169 9.99316 21.7978 10.1426 22.3108 10.4333C22.8238 10.7241 23.2505 11.1457 23.5474 11.6551C23.8442 12.1646 24.0007 12.7437 24.0007 13.3333Z" fill="#EC6C10"/>
</svg>
